<?xml version="1.0" encoding="UTF-8" standalone="no"?>
<svg
        xmlns="http://www.w3.org/2000/svg"
        style="clip-rule:evenodd;fill-rule:evenodd;stroke-linejoin:round;stroke-miterlimit:2"
        xml:space="preserve"
        version="1.1"
        viewBox="0 0 178800 252600"
        height="300"
        width="300">
    <g
            transform="translate(0,0.00170347)"
            id="g1085"><g
     id="g1015"
     transform="matrix(1005.9991,0,0,1005.9991,-208215.28,-218239.44)"><rect
       style="fill:#363d56"
       height="136.811"
       width="229.00301"
       y="257.358"
       x="181.172"
       id="rect820" /><g
            id="g59"
            transform="translate(168.427,420.945)">
        <g
                id="g5"
                transform="scale(26.6667)">
            <path
                    id="path3"
                    style="fill:#363d56;fill-rule:nonzero"
                    d="M 0.45,0 H 0.07 v -0.7 h 0.083 v 0.69 H 0.45 Z"/>
        </g>
        <g
                id="g9"
                transform="matrix(26.6667,0,0,26.6667,17.44,0)">
            <path
                    id="path7"
                    style="fill:#363d56;fill-rule:nonzero"
                    d="m 0.11,-0.115 c 0,0.053 0.014,0.086 0.042,0.101 0.013,0.007 0.03,0.01 0.051,0.01 0.042,0 0.079,-0.016 0.113,-0.048 0.032,-0.032 0.05,-0.062 0.053,-0.089 V -0.5 h 0.07 v 0.429 c 0,0.019 0.004,0.034 0.012,0.044 0.007,0.011 0.015,0.016 0.023,0.017 l 0.011,0.002 H 0.516 V 0 H 0.455 C 0.428,0 0.407,-0.006 0.393,-0.018 0.378,-0.03 0.371,-0.042 0.37,-0.054 L 0.369,-0.071 V -0.114 C 0.357,-0.085 0.336,-0.059 0.305,-0.034 0.274,-0.009 0.241,0.004 0.204,0.004 0.168,0.004 0.139,0 0.116,-0.007 0.093,-0.014 0.076,-0.023 0.066,-0.036 0.049,-0.057 0.04,-0.083 0.04,-0.116 V -0.5 h 0.07 z"/>
        </g>
        <g
                id="g13"
                transform="matrix(26.6667,0,0,26.6667,36.64,0)">
            <path
                    id="path11"
                    style="fill:#363d56;fill-rule:nonzero"
                    d="m 0.12,-0.75 v 0.498 L 0.34,-0.5 H 0.35 L 0.187,-0.316 0.402,0 H 0.332 L 0.147,-0.272 0.12,-0.241 V 0 H 0.05 v -0.75 z"/>
        </g>
        <g
                id="g17"
                transform="matrix(26.6667,0,0,26.6667,53.2,0)">
            <path
                    id="path15"
                    style="fill:#363d56;fill-rule:nonzero"
                    d="M 0.453,0 C 0.408,0 0.377,-0.009 0.36,-0.026 0.345,-0.041 0.337,-0.053 0.337,-0.064 V -0.085 C 0.304,-0.026 0.252,0.004 0.18,0.004 0.096,0.004 0.048,-0.034 0.037,-0.11 0.036,-0.118 0.035,-0.126 0.035,-0.135 c 0,-0.008 10e-4,-0.017 0.004,-0.027 0.003,-0.01 0.01,-0.021 0.023,-0.033 0.025,-0.024 0.081,-0.039 0.167,-0.044 0.021,-0.002 0.041,-0.003 0.059,-0.003 0.018,0 0.034,0.001 0.049,0.002 v -0.166 c -0.001,-10e-4 -0.001,-0.004 0,-0.01 0.001,-0.005 0,-0.013 -0.003,-0.022 C 0.33,-0.447 0.325,-0.455 0.319,-0.464 0.313,-0.473 0.302,-0.48 0.287,-0.487 0.272,-0.493 0.252,-0.496 0.227,-0.496 c -0.025,0 -0.054,0.004 -0.086,0.013 -0.033,0.01 -0.058,0.018 -0.073,0.027 L 0.064,-0.463 c 0.059,-0.027 0.12,-0.041 0.181,-0.041 0.069,0 0.114,0.012 0.136,0.037 0.017,0.019 0.026,0.04 0.026,0.061 v 0.335 c 0,0.019 0.004,0.034 0.012,0.044 0.007,0.011 0.015,0.016 0.023,0.017 l 0.011,0.002 H 0.484 V 0 Z M 0.196,-0.004 c 0.035,0 0.067,-0.012 0.096,-0.037 0.028,-0.024 0.043,-0.047 0.045,-0.07 V -0.232 C 0.319,-0.233 0.301,-0.234 0.282,-0.234 c -0.018,0 -0.036,0.001 -0.054,0.003 -0.051,0.006 -0.084,0.017 -0.099,0.034 -0.015,0.017 -0.023,0.04 -0.023,0.069 0,0.005 0,0.011 0.001,0.018 0.006,0.071 0.036,0.106 0.089,0.106 z"/>
        </g>
        <g
                id="g21"
                transform="matrix(26.6667,0,0,26.6667,71.68,0)">
            <path
                    id="path19"
                    style="fill:#363d56;fill-rule:nonzero"
                    d="M 0.332,-0.465 C 0.321,-0.474 0.304,-0.481 0.281,-0.487 0.257,-0.493 0.239,-0.496 0.227,-0.496 H 0.206 c -0.036,0.001 -0.062,0.01 -0.078,0.027 -0.016,0.018 -0.024,0.038 -0.024,0.06 0,0.022 0.007,0.04 0.021,0.055 0.014,0.015 0.032,0.027 0.053,0.035 0.021,0.009 0.043,0.018 0.068,0.029 0.024,0.011 0.047,0.021 0.068,0.032 0.021,0.011 0.038,0.027 0.052,0.048 0.014,0.021 0.021,0.048 0.021,0.079 0,0.031 -0.011,0.058 -0.033,0.08 C 0.332,-0.029 0.308,-0.014 0.281,-0.007 0.254,0 0.224,0.004 0.193,0.004 0.125,0.004 0.074,-0.011 0.04,-0.041 l 0.006,-0.006 c 0.013,0.013 0.033,0.023 0.06,0.031 0.026,0.008 0.051,0.012 0.076,0.012 0.039,0 0.072,-0.011 0.098,-0.033 0.025,-0.021 0.038,-0.048 0.038,-0.08 0,-0.033 -0.01,-0.059 -0.029,-0.079 C 0.27,-0.215 0.246,-0.231 0.219,-0.242 0.191,-0.253 0.163,-0.264 0.135,-0.275 0.107,-0.285 0.083,-0.301 0.064,-0.321 0.045,-0.34 0.035,-0.363 0.035,-0.389 c 0,-0.026 0.006,-0.047 0.018,-0.064 0.012,-0.016 0.028,-0.027 0.048,-0.034 0.034,-0.011 0.068,-0.017 0.102,-0.017 0.057,0 0.102,0.011 0.134,0.032 z"/>
        </g>
        <g
                id="g25"
                transform="matrix(26.6667,0,0,26.6667,101.253,0)">
            <path
                    id="path23"
                    style="fill:#363d56;fill-rule:nonzero"
                    d="M 0.07,-0.692 C 0.147,-0.697 0.216,-0.7 0.275,-0.7 c 0.165,0 0.247,0.055 0.247,0.165 0,0.047 -0.011,0.088 -0.034,0.125 -0.023,0.037 -0.062,0.061 -0.117,0.073 L 0.571,0 H 0.478 L 0.282,-0.331 H 0.153 V 0 H 0.07 Z m 0.205,0.002 c -0.039,0 -0.079,0.002 -0.122,0.007 v 0.342 H 0.301 C 0.395,-0.345 0.442,-0.409 0.442,-0.533 0.442,-0.584 0.428,-0.623 0.4,-0.65 0.372,-0.677 0.33,-0.69 0.275,-0.69 Z"/>
        </g>
        <g
                id="g29"
                transform="matrix(26.6667,0,0,26.6667,122.187,0)">
            <path
                    id="path27"
                    style="fill:#363d56;fill-rule:nonzero"
                    d="M 0.163,0.179 C 0.142,0.226 0.115,0.25 0.084,0.25 0.07,0.25 0.054,0.248 0.035,0.243 V 0.235 C 0.05,0.239 0.064,0.241 0.076,0.241 0.11,0.241 0.136,0.22 0.154,0.179 L 0.238,0 H 0.237 L 0.051,-0.5 h 0.07 L 0.276,-0.083 0.429,-0.4 c 0.008,-0.014 0.012,-0.031 0.012,-0.05 0,-0.019 -0.005,-0.034 -0.016,-0.044 L 0.431,-0.5 c 0.003,0.001 0.006,0.005 0.011,0.012 0.004,0.007 0.007,0.013 0.008,0.018 0.001,0.005 0.001,0.01 0.001,0.015 0,0.018 -0.004,0.036 -0.012,0.055 L 0.247,0 Z"/>
        </g>
        <g
                id="g33"
                transform="matrix(26.6667,0,0,26.6667,139.787,0)">
            <path
                    id="path31"
                    style="fill:#363d56;fill-rule:nonzero"
                    d="m 0.04,-0.232 c 0,-0.087 0.021,-0.154 0.063,-0.201 0.042,-0.047 0.105,-0.071 0.189,-0.071 0.039,0 0.079,0.01 0.119,0.03 v -0.275 h 0.07 v 0.678 c 0,0.019 0.004,0.034 0.012,0.044 0.007,0.011 0.015,0.016 0.023,0.017 l 0.011,0.002 H 0.558 V 0 H 0.497 C 0.47,0 0.449,-0.006 0.435,-0.018 0.42,-0.03 0.413,-0.042 0.412,-0.054 L 0.411,-0.071 V -0.087 C 0.398,-0.064 0.377,-0.043 0.348,-0.025 0.319,-0.007 0.284,0.002 0.244,0.002 0.108,-0.001 0.04,-0.079 0.04,-0.232 Z m 0.205,0.226 c 0.045,0 0.083,-0.012 0.115,-0.036 0.032,-0.024 0.049,-0.048 0.051,-0.071 V -0.465 C 0.364,-0.486 0.323,-0.496 0.289,-0.496 c -0.059,0 -0.104,0.023 -0.134,0.069 -0.03,0.047 -0.045,0.112 -0.045,0.195 0,0.151 0.045,0.226 0.135,0.226 z"/>
        </g>
        <g
                id="g37"
                transform="matrix(26.6667,0,0,26.6667,160.907,0)">
            <path
                    id="path35"
                    style="fill:#363d56;fill-rule:nonzero"
                    d="M 0.06,-0.492 V -0.5 h 0.347 v 0.008 l -0.302,0.484 h 0.239 c 0.046,0 0.074,-0.013 0.083,-0.04 l 0.006,0.003 c 0,0.003 -0.002,0.007 -0.007,0.013 C 0.421,-0.025 0.416,-0.02 0.41,-0.016 0.394,-0.005 0.372,0 0.344,0 H 0.035 v -0.008 l 0.302,-0.484 z"/>
        </g>
        <g
                id="g41"
                transform="matrix(26.6667,0,0,26.6667,178.027,0)">
            <path
                    id="path39"
                    style="fill:#363d56;fill-rule:nonzero"
                    d="M 0.163,0.179 C 0.142,0.226 0.115,0.25 0.084,0.25 0.07,0.25 0.054,0.248 0.035,0.243 V 0.235 C 0.05,0.239 0.064,0.241 0.076,0.241 0.11,0.241 0.136,0.22 0.154,0.179 L 0.238,0 H 0.237 L 0.051,-0.5 h 0.07 L 0.276,-0.083 0.429,-0.4 c 0.008,-0.014 0.012,-0.031 0.012,-0.05 0,-0.019 -0.005,-0.034 -0.016,-0.044 L 0.431,-0.5 c 0.003,0.001 0.006,0.005 0.011,0.012 0.004,0.007 0.007,0.013 0.008,0.018 0.001,0.005 0.001,0.01 0.001,0.015 0,0.018 -0.004,0.036 -0.012,0.055 L 0.247,0 Z"/>
        </g>
        <g
                id="g45"
                transform="matrix(26.6667,0,0,26.6667,195.627,0)">
            <path
                    id="path43"
                    style="fill:#363d56;fill-rule:nonzero"
                    d="M 0.455,0 C 0.428,0 0.407,-0.006 0.393,-0.018 0.378,-0.03 0.371,-0.042 0.37,-0.054 L 0.369,-0.071 v -0.314 c 0,-0.053 -0.014,-0.086 -0.041,-0.101 -0.014,-0.007 -0.031,-0.01 -0.052,-0.01 -0.043,0 -0.081,0.017 -0.115,0.05 C 0.127,-0.412 0.11,-0.382 0.11,-0.355 V 0 H 0.04 v -0.5 h 0.07 v 0.114 c 0.011,-0.029 0.032,-0.056 0.063,-0.081 0.031,-0.025 0.064,-0.037 0.101,-0.037 0.037,0 0.067,0.004 0.09,0.01 0.023,0.007 0.039,0.017 0.05,0.03 0.017,0.021 0.025,0.047 0.025,0.08 v 0.313 c 0,0.019 0.004,0.034 0.012,0.044 0.007,0.011 0.015,0.016 0.023,0.017 l 0.011,0.002 H 0.516 V 0 Z"/>
        </g>
        <g
                id="g49"
                transform="matrix(26.6667,0,0,26.6667,214.827,0)">
            <path
                    id="path47"
                    style="fill:#363d56;fill-rule:nonzero"
                    d="M 0.332,-0.465 C 0.321,-0.474 0.304,-0.481 0.281,-0.487 0.257,-0.493 0.239,-0.496 0.227,-0.496 H 0.206 c -0.036,0.001 -0.062,0.01 -0.078,0.027 -0.016,0.018 -0.024,0.038 -0.024,0.06 0,0.022 0.007,0.04 0.021,0.055 0.014,0.015 0.032,0.027 0.053,0.035 0.021,0.009 0.043,0.018 0.068,0.029 0.024,0.011 0.047,0.021 0.068,0.032 0.021,0.011 0.038,0.027 0.052,0.048 0.014,0.021 0.021,0.048 0.021,0.079 0,0.031 -0.011,0.058 -0.033,0.08 C 0.332,-0.029 0.308,-0.014 0.281,-0.007 0.254,0 0.224,0.004 0.193,0.004 0.125,0.004 0.074,-0.011 0.04,-0.041 l 0.006,-0.006 c 0.013,0.013 0.033,0.023 0.06,0.031 0.026,0.008 0.051,0.012 0.076,0.012 0.039,0 0.072,-0.011 0.098,-0.033 0.025,-0.021 0.038,-0.048 0.038,-0.08 0,-0.033 -0.01,-0.059 -0.029,-0.079 C 0.27,-0.215 0.246,-0.231 0.219,-0.242 0.191,-0.253 0.163,-0.264 0.135,-0.275 0.107,-0.285 0.083,-0.301 0.064,-0.321 0.045,-0.34 0.035,-0.363 0.035,-0.389 c 0,-0.026 0.006,-0.047 0.018,-0.064 0.012,-0.016 0.028,-0.027 0.048,-0.034 0.034,-0.011 0.068,-0.017 0.102,-0.017 0.057,0 0.102,0.011 0.134,0.032 z"/>
        </g>
        <g
                id="g53"
                transform="matrix(26.6667,0,0,26.6667,230.72,0)">
            <path
                    id="path51"
                    style="fill:#363d56;fill-rule:nonzero"
                    d="m 0.12,-0.75 v 0.498 L 0.34,-0.5 H 0.35 L 0.187,-0.316 0.402,0 H 0.332 L 0.147,-0.272 0.12,-0.241 V 0 H 0.05 v -0.75 z"/>
        </g>
        <g
                id="g57"
                transform="matrix(26.6667,0,0,26.6667,247.547,0)">
            <path
                    id="path55"
                    style="fill:#363d56;fill-rule:nonzero"
                    d="M 0.142,0 C 0.115,0 0.094,-0.006 0.08,-0.018 0.065,-0.03 0.058,-0.042 0.057,-0.054 L 0.056,-0.071 V -0.5 h 0.07 v 0.429 c 0,0.019 0.004,0.034 0.012,0.044 0.007,0.011 0.015,0.016 0.022,0.017 l 0.012,0.002 H 0.203 V 0 Z M 0.062,-0.612 C 0.054,-0.62 0.05,-0.63 0.05,-0.642 c 0,-0.012 0.004,-0.022 0.012,-0.031 0.008,-0.008 0.018,-0.012 0.03,-0.012 0.012,0 0.022,0.004 0.031,0.012 0.008,0.009 0.012,0.019 0.012,0.031 0,0.012 -0.004,0.022 -0.012,0.03 C 0.114,-0.604 0.104,-0.6 0.092,-0.6 0.08,-0.6 0.07,-0.604 0.062,-0.612 Z"/>
        </g>
    </g><g
            id="g129"
            transform="translate(185.594,348.145)">
        <g
                id="g63"
                transform="scale(23.3333)">
            <path
                    id="path61"
                    style="fill:#ffffff;fill-rule:nonzero"
                    d="m 0.541,-0.7 c 0.013,0.013 0.019,0.029 0.019,0.049 0,0.017 -0.004,0.034 -0.011,0.051 L 0.293,0 0.282,0.005 0.03,-0.7 H 0.115 L 0.324,-0.108 0.537,-0.6 c 0.007,-0.017 0.011,-0.034 0.011,-0.052 0,-0.018 -0.005,-0.032 -0.015,-0.042 z"/>
        </g>
        <g
                id="g67"
                transform="matrix(23.3333,0,0,23.3333,15.05,0)">
            <path
                    id="path65"
                    style="fill:#ffffff;fill-rule:nonzero"
                    d="m 0.108,-0.244 c 0,0.083 0.015,0.143 0.044,0.182 0.029,0.039 0.067,0.058 0.114,0.058 0.067,0 0.126,-0.01 0.178,-0.03 l 0.003,0.007 C 0.394,-0.006 0.334,0.004 0.267,0.004 0.2,0.004 0.145,-0.016 0.103,-0.056 0.061,-0.096 0.04,-0.158 0.04,-0.241 c 0,-0.083 0.022,-0.148 0.066,-0.194 0.044,-0.046 0.1,-0.069 0.168,-0.069 0.055,0 0.101,0.016 0.138,0.049 0.037,0.033 0.056,0.081 0.056,0.145 V -0.3 H 0.111 C 0.109,-0.282 0.108,-0.263 0.108,-0.244 Z M 0.4,-0.308 C 0.399,-0.372 0.387,-0.419 0.363,-0.45 0.339,-0.481 0.308,-0.496 0.27,-0.496 c -0.038,0 -0.072,0.017 -0.101,0.05 -0.03,0.033 -0.049,0.079 -0.057,0.138 z"/>
        </g>
        <g
                id="g71"
                transform="matrix(23.3333,0,0,23.3333,27.9767,0)">
            <path
                    id="path69"
                    style="fill:#ffffff;fill-rule:nonzero"
                    d="M 0.231,-0.457 V -0.478 C 0.201,-0.466 0.174,-0.442 0.149,-0.406 0.124,-0.369 0.111,-0.335 0.11,-0.303 V 0 H 0.04 v -0.5 h 0.07 v 0.159 c 0.011,-0.039 0.031,-0.075 0.061,-0.11 0.03,-0.034 0.064,-0.052 0.102,-0.053 h 0.004 c 0.013,0 0.025,0.004 0.034,0.013 0.009,0.009 0.013,0.021 0.013,0.034 0,0.013 -0.004,0.024 -0.013,0.033 -0.009,0.009 -0.021,0.013 -0.034,0.013 -0.013,0 -0.024,-0.004 -0.033,-0.013 -0.009,-0.009 -0.013,-0.02 -0.013,-0.033 z"/>
        </g>
        <g
                id="g75"
                transform="matrix(23.3333,0,0,23.3333,37.6367,0)">
            <path
                    id="path73"
                    style="fill:#ffffff;fill-rule:nonzero"
                    d="m 0.643,-0.385 c 0,-0.041 -0.005,-0.069 -0.016,-0.086 -0.011,-0.017 -0.031,-0.025 -0.061,-0.025 -0.04,0 -0.075,0.017 -0.106,0.05 -0.031,0.033 -0.047,0.063 -0.047,0.09 V 0 H 0.343 V -0.385 C 0.343,-0.426 0.338,-0.454 0.327,-0.471 0.316,-0.488 0.294,-0.496 0.259,-0.496 0.224,-0.496 0.192,-0.48 0.161,-0.448 0.13,-0.416 0.113,-0.386 0.11,-0.359 V 0 H 0.04 v -0.5 h 0.07 v 0.113 c 0.011,-0.029 0.03,-0.055 0.059,-0.08 0.029,-0.025 0.061,-0.037 0.096,-0.037 0.035,0 0.064,0.003 0.084,0.009 0.022,0.007 0.036,0.017 0.045,0.03 0.009,0.013 0.014,0.025 0.016,0.035 0.002,0.01 0.003,0.024 0.003,0.042 0.011,-0.029 0.03,-0.055 0.058,-0.08 0.028,-0.024 0.058,-0.036 0.09,-0.036 0.032,0 0.058,0.003 0.077,0.008 0.019,0.005 0.034,0.011 0.044,0.018 0.009,0.007 0.017,0.016 0.022,0.029 0.005,0.013 0.007,0.023 0.008,0.031 0.001,0.008 0.001,0.019 0.001,0.034 v 0.313 c 0,0.019 0.004,0.034 0.012,0.044 0.007,0.011 0.015,0.016 0.023,0.017 l 0.011,0.002 H 0.79 V 0 H 0.729 C 0.702,0 0.681,-0.006 0.667,-0.018 0.652,-0.03 0.645,-0.042 0.644,-0.054 L 0.643,-0.071 Z"/>
        </g>
        <g
                id="g79"
                transform="matrix(23.3333,0,0,23.3333,57.5867,0)">
            <path
                    id="path77"
                    style="fill:#ffffff;fill-rule:nonzero"
                    d="M 0.143,-0.612 C 0.135,-0.62 0.131,-0.63 0.131,-0.642 c 0,-0.012 0.004,-0.022 0.012,-0.031 0.008,-0.008 0.018,-0.012 0.03,-0.012 0.012,0 0.022,0.004 0.03,0.012 0.009,0.009 0.013,0.019 0.013,0.031 0,0.012 -0.004,0.022 -0.013,0.03 -0.008,0.008 -0.018,0.012 -0.03,0.012 -0.012,0 -0.022,-0.004 -0.03,-0.012 z m 0.218,0 C 0.353,-0.62 0.349,-0.63 0.349,-0.642 c 0,-0.012 0.004,-0.022 0.012,-0.031 0.008,-0.008 0.018,-0.012 0.03,-0.012 0.012,0 0.022,0.004 0.031,0.012 0.008,0.009 0.012,0.019 0.012,0.031 0,0.012 -0.004,0.022 -0.012,0.03 C 0.413,-0.604 0.403,-0.6 0.391,-0.6 0.379,-0.6 0.369,-0.604 0.361,-0.612 Z M 0.278,0.004 c -0.071,0 -0.128,-0.02 -0.172,-0.06 -0.044,-0.04 -0.066,-0.102 -0.066,-0.185 0,-0.083 0.023,-0.148 0.069,-0.194 0.045,-0.046 0.103,-0.069 0.173,-0.069 0.071,0 0.128,0.02 0.172,0.06 0.044,0.04 0.066,0.102 0.066,0.185 0,0.083 -0.023,0.148 -0.068,0.194 -0.046,0.046 -0.104,0.069 -0.174,0.069 z m 0.006,-0.5 c -0.051,0 -0.093,0.023 -0.126,0.067 -0.033,0.045 -0.05,0.108 -0.05,0.188 0,0.081 0.015,0.14 0.046,0.179 0.031,0.039 0.071,0.058 0.122,0.058 0.051,0 0.093,-0.023 0.126,-0.067 0.033,-0.046 0.05,-0.108 0.05,-0.189 0,-0.08 -0.015,-0.139 -0.046,-0.178 C 0.375,-0.477 0.335,-0.496 0.284,-0.496 Z"/>
        </g>
        <g
                id="g83"
                transform="matrix(23.3333,0,0,23.3333,71.9367,0)">
            <path
                    id="path81"
                    style="fill:#ffffff;fill-rule:nonzero"
                    d="m 0.035,-0.232 c 0,-0.087 0.021,-0.154 0.063,-0.201 0.042,-0.047 0.105,-0.071 0.189,-0.071 0.062,0 0.125,0.011 0.189,0.033 V 0.012 C 0.475,0.171 0.406,0.25 0.268,0.25 0.192,0.25 0.127,0.225 0.073,0.176 L 0.08,0.17 c 0.057,0.048 0.12,0.072 0.188,0.072 0.092,0 0.138,-0.077 0.138,-0.23 V -0.087 C 0.393,-0.064 0.372,-0.043 0.343,-0.025 0.314,-0.007 0.279,0.002 0.239,0.002 0.103,-0.001 0.035,-0.079 0.035,-0.232 Z m 0.205,0.226 c 0.045,0 0.083,-0.012 0.115,-0.036 0.032,-0.024 0.049,-0.048 0.051,-0.071 v -0.353 c -0.048,-0.02 -0.089,-0.03 -0.122,-0.03 -0.059,0 -0.104,0.023 -0.134,0.069 -0.03,0.047 -0.045,0.112 -0.045,0.195 0,0.151 0.045,0.226 0.135,0.226 z"/>
        </g>
        <g
                id="g87"
                transform="matrix(23.3333,0,0,23.3333,85.1433,0)">
            <path
                    id="path85"
                    style="fill:#ffffff;fill-rule:nonzero"
                    d="m 0.108,-0.244 c 0,0.083 0.015,0.143 0.044,0.182 0.029,0.039 0.067,0.058 0.114,0.058 0.067,0 0.126,-0.01 0.178,-0.03 l 0.003,0.007 C 0.394,-0.006 0.334,0.004 0.267,0.004 0.2,0.004 0.145,-0.016 0.103,-0.056 0.061,-0.096 0.04,-0.158 0.04,-0.241 c 0,-0.083 0.022,-0.148 0.066,-0.194 0.044,-0.046 0.1,-0.069 0.168,-0.069 0.055,0 0.101,0.016 0.138,0.049 0.037,0.033 0.056,0.081 0.056,0.145 V -0.3 H 0.111 C 0.109,-0.282 0.108,-0.263 0.108,-0.244 Z M 0.4,-0.308 C 0.399,-0.372 0.387,-0.419 0.363,-0.45 0.339,-0.481 0.308,-0.496 0.27,-0.496 c -0.038,0 -0.072,0.017 -0.101,0.05 -0.03,0.033 -0.049,0.079 -0.057,0.138 z"/>
        </g>
        <g
                id="g91"
                transform="matrix(23.3333,0,0,23.3333,98.07,0)">
            <path
                    id="path89"
                    style="fill:#ffffff;fill-rule:nonzero"
                    d="M 0.455,0 C 0.428,0 0.407,-0.006 0.393,-0.018 0.378,-0.03 0.371,-0.042 0.37,-0.054 L 0.369,-0.071 v -0.314 c 0,-0.053 -0.014,-0.086 -0.041,-0.101 -0.014,-0.007 -0.031,-0.01 -0.052,-0.01 -0.043,0 -0.081,0.017 -0.115,0.05 C 0.127,-0.412 0.11,-0.382 0.11,-0.355 V 0 H 0.04 v -0.5 h 0.07 v 0.114 c 0.011,-0.029 0.032,-0.056 0.063,-0.081 0.031,-0.025 0.064,-0.037 0.101,-0.037 0.037,0 0.067,0.004 0.09,0.01 0.023,0.007 0.039,0.017 0.05,0.03 0.017,0.021 0.025,0.047 0.025,0.08 v 0.313 c 0,0.019 0.004,0.034 0.012,0.044 0.007,0.011 0.015,0.016 0.023,0.017 l 0.011,0.002 H 0.516 V 0 Z"/>
        </g>
        <g
                id="g95"
                transform="matrix(23.3333,0,0,23.3333,111.627,0)">
            <path
                    id="path93"
                    style="fill:#ffffff;fill-rule:nonzero"
                    d="M 0.332,-0.465 C 0.321,-0.474 0.304,-0.481 0.281,-0.487 0.257,-0.493 0.239,-0.496 0.227,-0.496 H 0.206 c -0.036,0.001 -0.062,0.01 -0.078,0.027 -0.016,0.018 -0.024,0.038 -0.024,0.06 0,0.022 0.007,0.04 0.021,0.055 0.014,0.015 0.032,0.027 0.053,0.035 0.021,0.009 0.043,0.018 0.068,0.029 0.024,0.011 0.047,0.021 0.068,0.032 0.021,0.011 0.038,0.027 0.052,0.048 0.014,0.021 0.021,0.048 0.021,0.079 0,0.031 -0.011,0.058 -0.033,0.08 C 0.332,-0.029 0.308,-0.014 0.281,-0.007 0.254,0 0.224,0.004 0.193,0.004 0.125,0.004 0.074,-0.011 0.04,-0.041 l 0.006,-0.006 c 0.013,0.013 0.033,0.023 0.06,0.031 0.026,0.008 0.051,0.012 0.076,0.012 0.039,0 0.072,-0.011 0.098,-0.033 0.025,-0.021 0.038,-0.048 0.038,-0.08 0,-0.033 -0.01,-0.059 -0.029,-0.079 C 0.27,-0.215 0.246,-0.231 0.219,-0.242 0.191,-0.253 0.163,-0.264 0.135,-0.275 0.107,-0.285 0.083,-0.301 0.064,-0.321 0.045,-0.34 0.035,-0.363 0.035,-0.389 c 0,-0.026 0.006,-0.047 0.018,-0.064 0.012,-0.016 0.028,-0.027 0.048,-0.034 0.034,-0.011 0.068,-0.017 0.102,-0.017 0.057,0 0.102,0.011 0.134,0.032 z"/>
        </g>
        <g
                id="g99"
                transform="matrix(23.3333,0,0,23.3333,122.757,0)">
            <path
                    id="path97"
                    style="fill:#ffffff;fill-rule:nonzero"
                    d="m 0.04,-0.749 h 0.07 v 0.373 c 0.011,-0.031 0.032,-0.06 0.063,-0.087 0.031,-0.027 0.065,-0.041 0.104,-0.041 0.135,0 0.203,0.079 0.203,0.238 0,0.18 -0.087,0.27 -0.262,0.27 -0.051,0 -0.111,-0.008 -0.178,-0.025 z m 0.236,0.253 c -0.041,0 -0.079,0.018 -0.112,0.053 -0.033,0.036 -0.051,0.068 -0.054,0.097 v 0.319 c 0.041,0.015 0.076,0.023 0.107,0.023 0.129,0 0.193,-0.088 0.193,-0.263 0,-0.153 -0.045,-0.229 -0.134,-0.229 z"/>
        </g>
        <g
                id="g103"
                transform="matrix(23.3333,0,0,23.3333,136.173,0)">
            <path
                    id="path101"
                    style="fill:#ffffff;fill-rule:nonzero"
                    d="m 0.108,-0.244 c 0,0.083 0.015,0.143 0.044,0.182 0.029,0.039 0.067,0.058 0.114,0.058 0.067,0 0.126,-0.01 0.178,-0.03 l 0.003,0.007 C 0.394,-0.006 0.334,0.004 0.267,0.004 0.2,0.004 0.145,-0.016 0.103,-0.056 0.061,-0.096 0.04,-0.158 0.04,-0.241 c 0,-0.083 0.022,-0.148 0.066,-0.194 0.044,-0.046 0.1,-0.069 0.168,-0.069 0.055,0 0.101,0.016 0.138,0.049 0.037,0.033 0.056,0.081 0.056,0.145 V -0.3 H 0.111 C 0.109,-0.282 0.108,-0.263 0.108,-0.244 Z M 0.4,-0.308 C 0.399,-0.372 0.387,-0.419 0.363,-0.45 0.339,-0.481 0.308,-0.496 0.27,-0.496 c -0.038,0 -0.072,0.017 -0.101,0.05 -0.03,0.033 -0.049,0.079 -0.057,0.138 z"/>
        </g>
        <g
                id="g107"
                transform="matrix(23.3333,0,0,23.3333,149.1,0)">
            <path
                    id="path105"
                    style="fill:#ffffff;fill-rule:nonzero"
                    d="M 0.231,-0.457 V -0.478 C 0.201,-0.466 0.174,-0.442 0.149,-0.406 0.124,-0.369 0.111,-0.335 0.11,-0.303 V 0 H 0.04 v -0.5 h 0.07 v 0.159 c 0.011,-0.039 0.031,-0.075 0.061,-0.11 0.03,-0.034 0.064,-0.052 0.102,-0.053 h 0.004 c 0.013,0 0.025,0.004 0.034,0.013 0.009,0.009 0.013,0.021 0.013,0.034 0,0.013 -0.004,0.024 -0.013,0.033 -0.009,0.009 -0.021,0.013 -0.034,0.013 -0.013,0 -0.024,-0.004 -0.033,-0.013 -0.009,-0.009 -0.013,-0.02 -0.013,-0.033 z"/>
        </g>
        <g
                id="g111"
                transform="matrix(23.3333,0,0,23.3333,158.76,0)">
            <path
                    id="path109"
                    style="fill:#ffffff;fill-rule:nonzero"
                    d="M 0.453,0 C 0.408,0 0.377,-0.009 0.36,-0.026 0.345,-0.041 0.337,-0.053 0.337,-0.064 V -0.085 C 0.304,-0.026 0.252,0.004 0.18,0.004 0.096,0.004 0.048,-0.034 0.037,-0.11 0.036,-0.118 0.035,-0.126 0.035,-0.135 c 0,-0.008 10e-4,-0.017 0.004,-0.027 0.003,-0.01 0.01,-0.021 0.023,-0.033 0.025,-0.024 0.081,-0.039 0.167,-0.044 0.021,-0.002 0.041,-0.003 0.059,-0.003 0.018,0 0.034,0.001 0.049,0.002 v -0.166 c -0.001,-10e-4 -0.001,-0.004 0,-0.01 0.001,-0.005 0,-0.013 -0.003,-0.022 C 0.33,-0.447 0.325,-0.455 0.319,-0.464 0.313,-0.473 0.302,-0.48 0.287,-0.487 0.272,-0.493 0.252,-0.496 0.227,-0.496 c -0.025,0 -0.054,0.004 -0.086,0.013 -0.033,0.01 -0.058,0.018 -0.073,0.027 L 0.064,-0.463 c 0.059,-0.027 0.12,-0.041 0.181,-0.041 0.069,0 0.114,0.012 0.136,0.037 0.017,0.019 0.026,0.04 0.026,0.061 v 0.335 c 0,0.019 0.004,0.034 0.012,0.044 0.007,0.011 0.015,0.016 0.023,0.017 l 0.011,0.002 H 0.484 V 0 Z M 0.196,-0.004 c 0.035,0 0.067,-0.012 0.096,-0.037 0.028,-0.024 0.043,-0.047 0.045,-0.07 V -0.232 C 0.319,-0.233 0.301,-0.234 0.282,-0.234 c -0.018,0 -0.036,0.001 -0.054,0.003 -0.051,0.006 -0.084,0.017 -0.099,0.034 -0.015,0.017 -0.023,0.04 -0.023,0.069 0,0.005 0,0.011 0.001,0.018 0.006,0.071 0.036,0.106 0.089,0.106 z"/>
        </g>
        <g
                id="g115"
                transform="matrix(23.3333,0,0,23.3333,172.153,0)">
            <path
                    id="path113"
                    style="fill:#ffffff;fill-rule:nonzero"
                    d="M 0.035,-0.492 V -0.5 h 0.021 v -0.1 h 0.07 v 0.1 h 0.153 v 0.008 H 0.126 v 0.364 c 0,0.043 0.005,0.075 0.015,0.094 0.009,0.019 0.03,0.029 0.061,0.029 0.031,0 0.062,-0.006 0.094,-0.019 l 0.003,0.008 C 0.266,-0.003 0.228,0.003 0.185,0.003 0.141,0.003 0.109,-0.006 0.088,-0.024 0.067,-0.041 0.056,-0.076 0.056,-0.129 v -0.363 z"/>
        </g>
        <g
                id="g119"
                transform="matrix(23.3333,0,0,23.3333,181.23,0)">
            <path
                    id="path117"
                    style="fill:#ffffff;fill-rule:nonzero"
                    d="m 0.11,-0.115 c 0,0.053 0.014,0.086 0.042,0.101 0.013,0.007 0.03,0.01 0.051,0.01 0.042,0 0.079,-0.016 0.113,-0.048 0.032,-0.032 0.05,-0.062 0.053,-0.089 V -0.5 h 0.07 v 0.429 c 0,0.019 0.004,0.034 0.012,0.044 0.007,0.011 0.015,0.016 0.023,0.017 l 0.011,0.002 H 0.516 V 0 H 0.455 C 0.428,0 0.407,-0.006 0.393,-0.018 0.378,-0.03 0.371,-0.042 0.37,-0.054 L 0.369,-0.071 V -0.114 C 0.357,-0.085 0.336,-0.059 0.305,-0.034 0.274,-0.009 0.241,0.004 0.204,0.004 0.168,0.004 0.139,0 0.116,-0.007 0.093,-0.014 0.076,-0.023 0.066,-0.036 0.049,-0.057 0.04,-0.083 0.04,-0.116 V -0.5 h 0.07 z"/>
        </g>
        <g
                id="g123"
                transform="matrix(23.3333,0,0,23.3333,194.787,0)">
            <path
                    id="path121"
                    style="fill:#ffffff;fill-rule:nonzero"
                    d="M 0.455,0 C 0.428,0 0.407,-0.006 0.393,-0.018 0.378,-0.03 0.371,-0.042 0.37,-0.054 L 0.369,-0.071 v -0.314 c 0,-0.053 -0.014,-0.086 -0.041,-0.101 -0.014,-0.007 -0.031,-0.01 -0.052,-0.01 -0.043,0 -0.081,0.017 -0.115,0.05 C 0.127,-0.412 0.11,-0.382 0.11,-0.355 V 0 H 0.04 v -0.5 h 0.07 v 0.114 c 0.011,-0.029 0.032,-0.056 0.063,-0.081 0.031,-0.025 0.064,-0.037 0.101,-0.037 0.037,0 0.067,0.004 0.09,0.01 0.023,0.007 0.039,0.017 0.05,0.03 0.017,0.021 0.025,0.047 0.025,0.08 v 0.313 c 0,0.019 0.004,0.034 0.012,0.044 0.007,0.011 0.015,0.016 0.023,0.017 l 0.011,0.002 H 0.516 V 0 Z"/>
        </g>
        <g
                id="g127"
                transform="matrix(23.3333,0,0,23.3333,208.343,0)">
            <path
                    id="path125"
                    style="fill:#ffffff;fill-rule:nonzero"
                    d="m 0.035,-0.232 c 0,-0.087 0.021,-0.154 0.063,-0.201 0.042,-0.047 0.105,-0.071 0.189,-0.071 0.062,0 0.125,0.011 0.189,0.033 V 0.012 C 0.475,0.171 0.406,0.25 0.268,0.25 0.192,0.25 0.127,0.225 0.073,0.176 L 0.08,0.17 c 0.057,0.048 0.12,0.072 0.188,0.072 0.092,0 0.138,-0.077 0.138,-0.23 V -0.087 C 0.393,-0.064 0.372,-0.043 0.343,-0.025 0.314,-0.007 0.279,0.002 0.239,0.002 0.103,-0.001 0.035,-0.079 0.035,-0.232 Z m 0.205,0.226 c 0.045,0 0.083,-0.012 0.115,-0.036 0.032,-0.024 0.049,-0.048 0.051,-0.071 v -0.353 c -0.048,-0.02 -0.089,-0.03 -0.122,-0.03 -0.059,0 -0.104,0.023 -0.134,0.069 -0.03,0.047 -0.045,0.112 -0.045,0.195 0,0.151 0.045,0.226 0.135,0.226 z"/>
        </g>
    </g><path
            id="path131"
            style="fill:#ffffff;fill-rule:nonzero"
            d="m 261.074,357.077 v 5.198 c 0,2.642 0.524,4.669 1.572,6.082 1.048,1.412 2.118,2.163 3.212,2.255 l 1.503,0.273 h 4.237 v 1.093 h -4.237 c -8.018,0 -13.074,-2.095 -15.17,-6.286 -0.455,-0.912 -0.683,-1.732 -0.683,-2.46 v -6.155 z m 0,-29.533 h -9.566 v -57.929 h 9.566 z"/><path
            id="path133"
            style="fill:#ffffff;fill-rule:nonzero"
            d="m 315.571,357.077 v 14.901 h -9.567 v -14.901 z m -9.567,-29.533 v -23.899 h 9.567 v 21.73 c 1.458,-5.285 4.237,-10.273 8.337,-14.965 4.1,-4.692 8.746,-7.13 13.94,-7.312 h 0.546 c 1.823,0 3.349,0.615 4.579,1.845 1.23,1.23 1.845,2.756 1.845,4.579 0,1.822 -0.615,3.325 -1.845,4.51 -1.23,1.184 -2.756,1.776 -4.579,1.776 -1.822,0 -3.325,-0.592 -4.51,-1.776 -1.184,-1.185 -1.776,-2.688 -1.776,-4.51 v -2.87 c -4.1,1.64 -7.836,4.942 -11.207,9.908 -2.606,3.838 -4.259,7.5 -4.959,10.984 z"/></g></g>
</svg>