<?xml version="1.0" standalone="no"?>
<!DOCTYPE svg PUBLIC "-//W3C//DTD SVG 20010904//EN"
 "http://www.w3.org/TR/2001/REC-SVG-20010904/DTD/svg10.dtd">
<svg version="1.0" xmlns="http://www.w3.org/2000/svg"
 width="2000.000000pt" height="2000.000000pt" viewBox="0 0 2000.000000 2000.000000"
 preserveAspectRatio="xMidYMid meet">
<metadata>
Created by potrace 1.14, written by Peter Selinger 2001-2017
</metadata>
<g transform="translate(0.000000,2000.000000) scale(0.100000,-0.100000)"
fill="#000000" stroke="none">
<path d="M0 10000 l0 -10000 10000 0 10000 0 0 10000 0 10000 -10000 0 -10000
0 0 -10000z m4203 868 l2 -8223 23 -120 c70 -373 173 -584 392 -806 92 -93
202 -167 295 -197 39 -12 135 -33 215 -47 137 -24 165 -25 523 -25 l377 0 0
-95 0 -95 -382 0 c-700 1 -1067 25 -1433 96 -479 93 -854 250 -1130 474 -97
79 -241 232 -308 328 -105 149 -196 349 -226 500 -8 37 -11 2461 -11 8242 l0
8190 830 0 830 0 3 -8222z m13838 2349 c198 -52 357 -143 499 -286 256 -257
366 -613 305 -987 -56 -346 -263 -625 -582 -783 -151 -75 -270 -102 -473 -108
-178 -6 -287 9 -435 58 -311 104 -570 377 -655 693 -35 129 -42 208 -49 523
l-6 312 -75 -33 c-605 -264 -1160 -733 -1670 -1410 -436 -581 -774 -1208 -950
-1759 -93 -290 -114 -386 -158 -700 -15 -112 -17 -415 -19 -3799 l-3 -3678
-830 0 -830 0 0 5950 0 5950 830 0 830 0 1 -1892 c0 -1041 2 -1888 4 -1883 2
6 27 84 55 175 281 896 769 1726 1479 2514 350 389 786 717 1201 906 417 190
795 272 1225 266 187 -3 220 -6 306 -29z"/>
</g>
</svg>
